# xmcd
#
# Track frame offsets:
#	182
#	27052
#	46260
#	61102
#	73287
#	109277
#	132532
#	146790
#	160702
#	179147
#	205865
#	224375
#
# Disc length: 3248 seconds
#
# Revision: 1
# Processed by: cddbd v1.5.2PL0 Copyright (c) Steve Scherf et al.
# Submitted via: audiograbber 1.83.01
#
DISCID=bc0cae0c
DTITLE=Blood, Sweat And Tears - Spinning Wheel
DYEAR=1900
DGENRE=
TTITLE0=I Love Your More Than You'll Ever Know
TTITLE1=Morning Glory
TTITLE2=My Days Are Numbered
TTITLE3=Without Her
TTITLE4=Somethin' Goin' On
TTITLE5=Smiling Phases
TTITLE6=Sometimes In Winter
TTITLE7=More And More
TTITLE8=And When I Die
TTITLE9=God Bless The Child
TTITLE10=Spinning Wheel
TTITLE11=You've Made Me So Very Happy
EXTD=
EXTT0=
EXTT1=
EXTT2=
EXTT3=
EXTT4=
EXTT5=
EXTT6=
EXTT7=
EXTT8=
EXTT9=
EXTT10=
EXTT11=
PLAYORDER=
